<svg width="256" height="256" viewBox="0 0 256 256" fill="none" xmlns="http://www.w3.org/2000/svg">
<g clip-path="url(#clip0_102_8)">
<rect width="256" height="256" fill="white"/>
<path d="M250.691 125.945L141.583 10.4799L134.269 2.73639C132.603 0.983688 130.349 0 128.001 0C125.652 0 123.398 0.983688 121.732 2.73639L5.30977 125.945C3.60229 127.746 2.25285 129.891 1.34109 132.253C0.429324 134.615 -0.0262783 137.146 0.00117042 139.698C0.114119 150.222 8.38763 158.623 18.3271 158.623H30.328V256H225.673V158.623H237.928C242.757 158.623 247.303 156.62 250.719 153.002C252.402 151.227 253.735 149.115 254.641 146.791C255.548 144.466 256.009 141.974 256 139.459C256 134.376 254.108 129.563 250.691 125.945ZM143.813 234.474H112.188V173.482H143.813V234.474ZM205.342 137.097V234.474H161.885V166.307C161.885 159.699 156.831 154.348 150.59 154.348H105.411C99.1703 154.348 94.1158 159.699 94.1158 166.307V234.474H50.6587V137.097H23.551L128.029 26.5649L134.552 33.4713L232.478 137.097H205.342Z" fill="#15D704"/>
</g>
<defs>
<clipPath id="clip0_102_8">
<rect width="256" height="256" fill="white"/>
</clipPath>
</defs>
</svg>
